<svg version="1.1" xmlns="http://www.w3.org/2000/svg" style="display: block;" viewBox="0 0 2048 1896" width="621" height="575" preserveAspectRatio="none">
<path transform="translate(0,0)" fill="rgb(58,164,254)" d="M 1039.15 3.41659 C 1058.66 2.86785 1078.15 5.0144 1097.08 9.79549 C 1145.03 22.1095 1188.96 57.2841 1217.12 97.4343 C 1244.23 136.088 1260.8 183.276 1281.11 225.816 C 1313.86 293.208 1347.04 360.392 1380.64 427.363 L 1740.26 1149.41 L 1860.87 1388.78 C 1886.02 1438.52 1912.58 1494.25 1940.49 1541.95 C 1972.7 1597 1983.21 1653.1 1967.02 1715.6 C 1953.14 1768.97 1918.76 1814.7 1871.36 1842.88 C 1823.43 1870.77 1761.29 1878.28 1707.87 1863.96 C 1658.35 1850.38 1615.87 1818.41 1589.1 1774.59 C 1567.78 1739.94 1557.47 1702.9 1556.6 1662.03 C 1556.33 1649.13 1560.66 1632.02 1555.65 1620.31 C 1545.45 1596.44 1532.27 1572.99 1520.26 1549.98 L 1460.64 1435.59 C 1430.92 1377.79 1400.89 1320.15 1370.56 1262.67 C 1360.57 1243.99 1351.12 1224.86 1340.47 1206.58 C 1337.41 1213.37 1334.22 1220.11 1330.89 1226.78 C 1288.45 1310.25 1219.86 1364.76 1131.63 1393.65 C 1013.25 1425.61 900.068 1397.71 812.956 1310.23 C 800.374 1321.2 781.239 1341.65 768.972 1353.97 L 683.853 1439.29 L 591.243 1531.83 C 574.626 1548.32 537.43 1583.5 525.483 1601.41 C 537.801 1677.78 532.748 1740.17 478.98 1801.78 C 405.089 1886.45 263.982 1895.09 180.901 1819.51 C 138.367 1780.81 115.394 1730.56 112.213 1673.23 C 110.666 1639.34 116.902 1605.55 130.443 1574.45 C 138.413 1556.3 149.146 1541.15 157.505 1524.11 C 175.495 1487.44 194.344 1451.27 212.65 1414.84 L 410.743 1019.97 L 742.085 356.523 C 765.045 310.773 787.478 264.76 809.381 218.495 C 833.105 168.156 847.282 117.836 885.102 76.6056 C 928.501 29.2949 975.457 6.87292 1039.15 3.41659 z"/>
<path transform="translate(0,0)" fill="rgb(255,255,255)" d="M 1203.83 370.755 C 1209.14 376.168 1236.1 431.887 1241.5 442.627 C 1264.17 487.046 1286.63 531.578 1308.85 576.223 L 1606.3 1166.86 L 1703.56 1359.61 C 1717.78 1387.63 1736.25 1427.79 1752.06 1454.1 C 1710.46 1456.64 1677.2 1465.67 1642.57 1489.93 C 1640.32 1491.45 1637.75 1493.69 1635.59 1495.45 C 1621.38 1469.56 1607.71 1441.47 1594.13 1415.02 C 1566.51 1361.67 1539.2 1308.17 1512.2 1254.51 L 1360.61 959.842 L 1178.67 603.104 C 1153.2 552.592 1123.5 497.654 1099.93 446.602 C 1145.06 427.231 1171.68 408.237 1203.83 370.755 z"/>
<path transform="translate(0,0)" fill="rgb(255,255,255)" d="M 878.155 372.585 C 887.47 381.234 897.558 394.305 908.022 403.927 C 920.176 415.102 938.366 426.647 947.561 438.808 C 958.75 453.606 969.2 474.417 977.676 490.985 C 988.884 512.937 999.982 534.945 1010.97 557.009 L 1114.75 760.576 C 1042.38 747.369 962.881 757.452 897.865 792.715 C 832.715 827.51 781.005 883.008 750.896 950.452 C 744.256 965.549 739.183 981.959 734.489 997.753 C 729.888 1015.06 727.514 1026.32 725.176 1044.06 L 615.414 1044.08 C 591.069 1044.08 565.701 1044.48 541.477 1043.26 C 548.451 1027.74 556.027 1009.04 563.582 994.093 C 578.805 963.966 594.375 934.056 609.551 903.867 L 720.168 684.481 L 814.634 495.213 C 833.764 456.888 856.621 408.772 878.155 372.585 z"/>
<path transform="translate(0,0)" fill="rgb(255,255,255)" d="M 1024.94 885.096 C 1135.16 875.058 1232.67 956.231 1242.78 1066.45 C 1252.89 1176.66 1171.79 1274.22 1061.58 1284.41 C 951.266 1294.61 853.587 1213.41 843.463 1103.09 C 833.339 992.767 914.608 895.144 1024.94 885.096 z"/>
<path transform="translate(0,0)" fill="rgb(58,164,254)" d="M 1037.69 981.254 C 1095.15 977.578 1144.75 1021.1 1148.56 1078.55 C 1152.37 1136 1108.97 1185.7 1051.53 1189.65 C 993.895 1193.62 943.991 1150.03 940.164 1092.39 C 936.336 1034.74 980.04 984.944 1037.69 981.254 z"/>
<path transform="translate(0,0)" fill="rgb(255,255,255)" d="M 478.909 1167.33 C 490.623 1167.88 502.742 1168 514.476 1167.89 C 587.45 1167.21 659.941 1171.59 732.951 1171.14 C 734.847 1179.98 739.185 1192.52 741.977 1201.41 C 718.347 1223.13 690.907 1252.42 667.665 1275.66 L 524.643 1418.75 C 500.016 1442.7 475.637 1466.9 451.51 1491.35 C 419.463 1465.7 376.286 1452.87 335.579 1452.11 C 339.476 1445.74 344.215 1434.82 347.627 1427.73 L 367.409 1387.33 L 438.233 1247.21 L 462.87 1198.49 C 467.549 1189.14 473.688 1175.93 478.909 1167.33 z"/>
<path transform="translate(0,0)" fill="rgb(255,255,255)" d="M 1027.35 126.922 C 1082.48 119.103 1133.55 157.319 1141.61 212.413 C 1149.66 267.507 1111.66 318.745 1056.6 327.033 C 1001.21 335.371 949.599 297.092 941.496 241.667 C 933.394 186.241 971.891 134.789 1027.35 126.922 z"/>
<path transform="translate(0,0)" fill="rgb(255,255,255)" d="M 309.519 1566.51 C 342.997 1562.27 376.176 1576.33 396.409 1603.34 C 416.643 1630.34 420.813 1666.14 407.332 1697.07 C 393.85 1728.01 364.793 1749.32 331.236 1752.89 C 280.078 1758.32 234.084 1721.55 228.13 1670.45 C 222.176 1619.35 258.482 1572.98 309.519 1566.51 z"/>
<path transform="translate(0,0)" fill="rgb(255,255,255)" d="M 1754.14 1566.6 C 1805.62 1560.48 1852.27 1597.38 1858.16 1648.88 C 1864.05 1700.38 1826.95 1746.87 1775.42 1752.53 C 1724.21 1758.16 1678.09 1721.34 1672.23 1670.16 C 1666.37 1618.98 1702.99 1572.69 1754.14 1566.6 z"/>
</svg>